<?xml version="1.0" encoding="UTF-8"?>
<svg xmlns="http://www.w3.org/2000/svg" xmlns:xlink="http://www.w3.org/1999/xlink" width="1000px" height="1000px" viewBox="0 0 1000 1000" version="1.1">
<defs>
<filter id="alpha" filterUnits="objectBoundingBox" x="0%" y="0%" width="100%" height="100%">
  <feColorMatrix type="matrix" in="SourceGraphic" values="0 0 0 0 1 0 0 0 0 1 0 0 0 0 1 0 0 0 1 0"/>
</filter>
<mask id="mask0">
  <g filter="url(#alpha)">
<rect x="0" y="0" width="1000" height="1000" style="fill:rgb(0%,0%,0%);fill-opacity:0.831373;stroke:none;"/>
  </g>
</mask>
<clipPath id="clip1">
  <rect x="0" y="0" width="1000" height="1000"/>
</clipPath>
<g id="surface5" clip-path="url(#clip1)">
<path style=" stroke:none;fill-rule:nonzero;fill:rgb(43.921569%,28.235294%,60.392157%);fill-opacity:1;" d="M 481.039062 760.980469 L 608.042969 760.980469 L 608.042969 765.566406 L 481.039062 765.566406 Z M 481.039062 760.980469 "/>
</g>
<mask id="mask1">
  <g filter="url(#alpha)">
<rect x="0" y="0" width="1000" height="1000" style="fill:rgb(0%,0%,0%);fill-opacity:0.831373;stroke:none;"/>
  </g>
</mask>
<clipPath id="clip2">
  <rect x="0" y="0" width="1000" height="1000"/>
</clipPath>
<g id="surface8" clip-path="url(#clip2)">
<path style=" stroke:none;fill-rule:nonzero;fill:rgb(43.921569%,28.235294%,60.392157%);fill-opacity:1;" d="M 435.703125 744.222656 L 568.179688 744.222656 L 568.179688 753.75 L 435.703125 753.75 Z M 435.703125 744.222656 "/>
</g>
<mask id="mask2">
  <g filter="url(#alpha)">
<rect x="0" y="0" width="1000" height="1000" style="fill:rgb(0%,0%,0%);fill-opacity:0.831373;stroke:none;"/>
  </g>
</mask>
<clipPath id="clip3">
  <rect x="0" y="0" width="1000" height="1000"/>
</clipPath>
<g id="surface11" clip-path="url(#clip3)">
<path style=" stroke:none;fill-rule:nonzero;fill:rgb(43.921569%,28.235294%,60.392157%);fill-opacity:1;" d="M 423.53125 735.933594 L 550.539062 735.933594 L 550.539062 740.519531 L 423.53125 740.519531 Z M 423.53125 735.933594 "/>
</g>
<mask id="mask3">
  <g filter="url(#alpha)">
<rect x="0" y="0" width="1000" height="1000" style="fill:rgb(0%,0%,0%);fill-opacity:0.831373;stroke:none;"/>
  </g>
</mask>
<clipPath id="clip4">
  <rect x="0" y="0" width="1000" height="1000"/>
</clipPath>
<g id="surface14" clip-path="url(#clip4)">
<path style=" stroke:none;fill-rule:nonzero;fill:rgb(27.058824%,37.647059%,67.45098%);fill-opacity:1;" d="M 491.445312 684.425781 C 485.800781 678.074219 481.039062 671.546875 478.039062 665.375 L 319.105469 665.375 C 317.515625 668.371094 314.515625 675.25 312.402344 684.425781 Z M 491.445312 684.425781 "/>
</g>
<mask id="mask4">
  <g filter="url(#alpha)">
<rect x="0" y="0" width="1000" height="1000" style="fill:rgb(0%,0%,0%);fill-opacity:0.831373;stroke:none;"/>
  </g>
</mask>
<clipPath id="clip5">
  <rect x="0" y="0" width="1000" height="1000"/>
</clipPath>
<g id="surface17" clip-path="url(#clip5)">
<path style=" stroke:none;fill-rule:nonzero;fill:rgb(27.058824%,37.647059%,67.45098%);fill-opacity:1;" d="M 312.046875 690.070312 C 311.519531 692.363281 311.164062 694.65625 310.988281 697.125 L 499.910156 697.125 C 497.617188 694.832031 495.324219 692.539062 493.207031 690.070312 Z M 312.046875 690.070312 "/>
</g>
<mask id="mask5">
  <g filter="url(#alpha)">
<rect x="0" y="0" width="1000" height="1000" style="fill:rgb(0%,0%,0%);fill-opacity:0.831373;stroke:none;"/>
  </g>
</mask>
<clipPath id="clip6">
  <rect x="0" y="0" width="1000" height="1000"/>
</clipPath>
<g id="surface20" clip-path="url(#clip6)">
<path style=" stroke:none;fill-rule:nonzero;fill:rgb(27.058824%,37.647059%,67.45098%);fill-opacity:1;" d="M 558.476562 684.425781 L 751.457031 684.425781 C 755.863281 678.074219 759.746094 672.078125 761.863281 666.253906 L 539.070312 666.253906 C 543.128906 671.546875 548.773438 677.722656 558.476562 684.425781 Z M 558.476562 684.425781 "/>
</g>
<mask id="mask6">
  <g filter="url(#alpha)">
<rect x="0" y="0" width="1000" height="1000" style="fill:rgb(0%,0%,0%);fill-opacity:0.831373;stroke:none;"/>
  </g>
</mask>
<clipPath id="clip7">
  <rect x="0" y="0" width="1000" height="1000"/>
</clipPath>
<g id="surface23" clip-path="url(#clip7)">
<path style=" stroke:none;fill-rule:nonzero;fill:rgb(27.058824%,37.647059%,67.45098%);fill-opacity:1;" d="M 553.714844 690.070312 C 557.066406 692.363281 560.945312 694.65625 565.179688 697.125 L 737.695312 697.125 C 739.460938 694.65625 741.046875 692.363281 742.636719 690.070312 Z M 553.714844 690.070312 "/>
</g>
<mask id="mask7">
  <g filter="url(#alpha)">
<rect x="0" y="0" width="1000" height="1000" style="fill:rgb(0%,0%,0%);fill-opacity:0.831373;stroke:none;"/>
  </g>
</mask>
<clipPath id="clip8">
  <rect x="0" y="0" width="1000" height="1000"/>
</clipPath>
<g id="surface26" clip-path="url(#clip8)">
<path style=" stroke:none;fill-rule:nonzero;fill:rgb(54.509804%,24.313725%,49.411765%);fill-opacity:1;" d="M 560.238281 816.546875 L 413.652344 816.546875 C 421.238281 820.601562 429.351562 824.835938 437.820312 828.894531 L 558.828125 828.894531 C 559.359375 825.367188 559.710938 821.308594 560.238281 816.546875 Z M 560.238281 816.546875 "/>
</g>
<mask id="mask8">
  <g filter="url(#alpha)">
<rect x="0" y="0" width="1000" height="1000" style="fill:rgb(0%,0%,0%);fill-opacity:0.811765;stroke:none;"/>
  </g>
</mask>
<clipPath id="clip9">
  <rect x="0" y="0" width="1000" height="1000"/>
</clipPath>
<g id="surface29" clip-path="url(#clip9)">
<path style=" stroke:none;fill-rule:nonzero;fill:rgb(48.235294%,56.862745%,78.823529%);fill-opacity:1;" d="M 349.445312 641.914062 L 736.460938 641.914062 C 736.285156 641.734375 736.285156 641.558594 736.109375 641.382812 C 732.226562 636.796875 725.878906 629.210938 718.644531 619.507812 L 359.851562 619.507812 C 356.675781 626.566406 353.148438 634.152344 349.445312 641.914062 Z M 349.445312 641.914062 "/>
</g>
<mask id="mask9">
  <g filter="url(#alpha)">
<rect x="0" y="0" width="1000" height="1000" style="fill:rgb(0%,0%,0%);fill-opacity:0.811765;stroke:none;"/>
  </g>
</mask>
<clipPath id="clip10">
  <rect x="0" y="0" width="1000" height="1000"/>
</clipPath>
<g id="surface32" clip-path="url(#clip10)">
<path style=" stroke:none;fill-rule:nonzero;fill:rgb(51.372549%,68.627451%,87.058824%);fill-opacity:1;" d="M 525.84375 662.550781 L 754.453125 662.550781 C 755.160156 657.964844 754.628906 653.378906 752.160156 648.617188 L 514.375 648.617188 C 518.433594 652.671875 522.667969 658.316406 525.84375 662.550781 Z M 525.84375 662.550781 "/>
</g>
<mask id="mask10">
  <g filter="url(#alpha)">
<rect x="0" y="0" width="1000" height="1000" style="fill:rgb(0%,0%,0%);fill-opacity:0.831373;stroke:none;"/>
  </g>
</mask>
<clipPath id="clip11">
  <rect x="0" y="0" width="1000" height="1000"/>
</clipPath>
<g id="surface35" clip-path="url(#clip11)">
<path style=" stroke:none;fill-rule:nonzero;fill:rgb(26.27451%,32.156863%,57.254902%);fill-opacity:1;" d="M 570.824219 699.769531 C 594.992188 708.589844 631.328125 716.882812 686.539062 722.527344 C 686.539062 722.527344 706.828125 721.996094 724.113281 701.359375 C 724.464844 700.828125 724.996094 700.300781 725.347656 699.769531 Z M 570.824219 699.769531 "/>
</g>
<mask id="mask11">
  <g filter="url(#alpha)">
<rect x="0" y="0" width="1000" height="1000" style="fill:rgb(0%,0%,0%);fill-opacity:0.831373;stroke:none;"/>
  </g>
</mask>
<clipPath id="clip12">
  <rect x="0" y="0" width="1000" height="1000"/>
</clipPath>
<g id="surface38" clip-path="url(#clip12)">
<path style=" stroke:none;fill-rule:nonzero;fill:rgb(43.137255%,27.45098%,59.607843%);fill-opacity:1;" d="M 572.765625 795.730469 L 426.175781 795.730469 C 433.761719 799.789062 441.875 804.023438 450.34375 808.078125 L 571.351562 808.078125 C 571.882812 804.550781 572.410156 800.492188 572.765625 795.730469 Z M 572.765625 795.730469 "/>
</g>
<mask id="mask12">
  <g filter="url(#alpha)">
<rect x="0" y="0" width="1000" height="1000" style="fill:rgb(0%,0%,0%);fill-opacity:0.831373;stroke:none;"/>
  </g>
</mask>
<clipPath id="clip13">
  <rect x="0" y="0" width="1000" height="1000"/>
</clipPath>
<g id="surface41" clip-path="url(#clip13)">
<path style=" stroke:none;fill-rule:nonzero;fill:rgb(10.588235%,21.568627%,57.647059%);fill-opacity:1;" d="M 382.429688 768.566406 C 384.019531 769.449219 385.78125 770.328125 387.371094 771.210938 C 387.371094 771.210938 403.953125 779.148438 427.589844 788.675781 L 586.347656 788.675781 C 586.875 783.03125 587.230469 776.328125 587.230469 768.566406 Z M 382.429688 768.566406 "/>
</g>
<mask id="mask13">
  <g filter="url(#alpha)">
<rect x="0" y="0" width="1000" height="1000" style="fill:rgb(0%,0%,0%);fill-opacity:0.811765;stroke:none;"/>
  </g>
</mask>
<clipPath id="clip14">
  <rect x="0" y="0" width="1000" height="1000"/>
</clipPath>
<g id="surface44" clip-path="url(#clip14)">
<path style=" stroke:none;fill-rule:nonzero;fill:rgb(71.372549%,87.843137%,91.372549%);fill-opacity:1;" d="M 358.792969 585.289062 C 355.972656 592.695312 352.972656 600.457031 349.445312 608.925781 L 701.003906 608.925781 C 696.066406 601.695312 690.773438 593.753906 685.484375 585.289062 Z M 358.792969 585.289062 "/>
</g>
<mask id="mask14">
  <g filter="url(#alpha)">
<rect x="0" y="0" width="1000" height="1000" style="fill:rgb(0%,0%,0%);fill-opacity:0.831373;stroke:none;"/>
  </g>
</mask>
<clipPath id="clip15">
  <rect x="0" y="0" width="1000" height="1000"/>
</clipPath>
<g id="surface47" clip-path="url(#clip15)">
<path style=" stroke:none;fill-rule:nonzero;fill:rgb(10.588235%,21.568627%,57.647059%);fill-opacity:1;" d="M 446.816406 834.890625 C 487.035156 852.707031 529.898438 864.527344 549.65625 846.886719 C 549.65625 846.886719 551.066406 843.359375 552.65625 834.890625 Z M 446.816406 834.890625 "/>
</g>
<mask id="mask15">
  <g filter="url(#alpha)">
<rect x="0" y="0" width="1000" height="1000" style="fill:rgb(0%,0%,0%);fill-opacity:0.831373;stroke:none;"/>
  </g>
</mask>
<clipPath id="clip16">
  <rect x="0" y="0" width="1000" height="1000"/>
</clipPath>
<g id="surface50" clip-path="url(#clip16)">
<path style=" stroke:none;fill-rule:nonzero;fill:rgb(26.27451%,32.156863%,57.254902%);fill-opacity:1;" d="M 310.460938 699.769531 C 310.285156 708.414062 311.34375 717.941406 315.046875 727.816406 L 541.1875 727.816406 C 532.367188 721.46875 518.960938 711.238281 506.613281 699.769531 Z M 310.460938 699.769531 "/>
</g>
</defs>
<g id="surface1">
<use xlink:href="#surface5" mask="url(#mask0)"/>
<use xlink:href="#surface8" mask="url(#mask1)"/>
<use xlink:href="#surface11" mask="url(#mask2)"/>
<use xlink:href="#surface14" mask="url(#mask3)"/>
<use xlink:href="#surface17" mask="url(#mask4)"/>
<use xlink:href="#surface20" mask="url(#mask5)"/>
<use xlink:href="#surface23" mask="url(#mask6)"/>
<path style=" stroke:none;fill-rule:nonzero;fill:rgb(100%,100%,100%);fill-opacity:1;" d="M 229.140625 112.894531 L 233.023438 112.894531 C 231.257812 106.015625 230.730469 100.195312 231.785156 95.960938 C 231.609375 95.960938 229.492188 101.605469 229.140625 112.894531 Z M 229.140625 112.894531 "/>
<path style=" stroke:none;fill-rule:nonzero;fill:rgb(100%,100%,100%);fill-opacity:1;" d="M 229.671875 127.535156 L 237.960938 127.535156 C 236.902344 124.714844 235.84375 121.890625 234.960938 119.246094 L 229.140625 119.246094 C 229.140625 121.890625 229.316406 124.535156 229.671875 127.535156 Z M 229.671875 127.535156 "/>
<use xlink:href="#surface26" mask="url(#mask7)"/>
<path style=" stroke:none;fill-rule:nonzero;fill:rgb(100%,100%,100%);fill-opacity:1;" d="M 336.742188 194.039062 C 336.039062 189.804688 335.332031 185.394531 334.625 180.808594 L 313.28125 180.808594 C 313.28125 185.042969 313.28125 189.453125 313.460938 194.039062 Z M 336.742188 194.039062 "/>
<path style=" stroke:none;fill-rule:nonzero;fill:rgb(100%,100%,100%);fill-opacity:1;" d="M 469.042969 194.039062 L 476.097656 194.039062 C 478.390625 190.6875 480.332031 187.335938 481.742188 183.808594 C 481.917969 183.808594 477.6875 188.039062 469.042969 194.039062 Z M 469.042969 194.039062 "/>
<path style=" stroke:none;fill-rule:nonzero;fill:rgb(100%,100%,100%);fill-opacity:1;" d="M 646.320312 171.8125 L 659.375 171.8125 C 659.023438 168.105469 658.492188 164.578125 657.789062 161.050781 L 646.5 161.050781 C 646.5 164.578125 646.5 168.105469 646.320312 171.8125 Z M 646.320312 171.8125 "/>
<path style=" stroke:none;fill-rule:nonzero;fill:rgb(100%,100%,100%);fill-opacity:1;" d="M 342.210938 219.792969 C 340.976562 214.675781 339.390625 207.972656 337.976562 200.386719 L 313.8125 200.386719 C 314.164062 206.5625 314.515625 212.914062 315.046875 219.792969 Z M 342.210938 219.792969 "/>
<path style=" stroke:none;fill-rule:nonzero;fill:rgb(100%,100%,100%);fill-opacity:1;" d="M 763.273438 161.050781 L 740.34375 161.050781 C 739.460938 165.460938 738.226562 169.871094 737.167969 174.28125 L 760.273438 174.28125 C 761.511719 170.046875 762.390625 165.636719 763.273438 161.050781 Z M 763.273438 161.050781 "/>
<path style=" stroke:none;fill-rule:nonzero;fill:rgb(100%,100%,100%);fill-opacity:1;" d="M 749.867188 245.722656 C 760.980469 239.371094 771.566406 232.84375 780.914062 226.320312 L 713.707031 226.320312 C 712.472656 227.90625 711.414062 229.671875 710 231.257812 C 710 231.257812 699.769531 239.371094 687.246094 245.722656 Z M 749.867188 245.722656 "/>
<path style=" stroke:none;fill-rule:nonzero;fill:rgb(100%,100%,100%);fill-opacity:1;" d="M 643.324219 219.792969 L 661.84375 219.792969 C 661.84375 213.617188 661.667969 207.089844 661.316406 200.386719 L 644.910156 200.386719 C 644.558594 206.914062 644.027344 213.441406 643.324219 219.792969 Z M 643.324219 219.792969 "/>
<path style=" stroke:none;fill-rule:nonzero;fill:rgb(100%,100%,100%);fill-opacity:1;" d="M 470.804688 200.386719 L 458.8125 200.386719 C 447.875 206.738281 433.058594 213.792969 413.652344 219.792969 L 447.167969 219.792969 C 456.339844 213.972656 464.457031 207.445312 470.804688 200.386719 Z M 470.804688 200.386719 "/>
<path style=" stroke:none;fill-rule:nonzero;fill:rgb(100%,100%,100%);fill-opacity:1;" d="M 816.546875 154.699219 C 816.015625 150.46875 814.957031 145.882812 813.371094 141.472656 C 813.371094 141.472656 814.253906 146.761719 813.019531 154.699219 Z M 816.546875 154.699219 "/>
<path style=" stroke:none;fill-rule:nonzero;fill:rgb(100%,100%,100%);fill-opacity:1;" d="M 316.8125 134.0625 C 315.753906 140.238281 314.871094 147.117188 314.164062 154.699219 L 332.15625 154.699219 C 331.804688 147.820312 331.804688 140.941406 332.15625 134.0625 Z M 316.8125 134.0625 "/>
<path style=" stroke:none;fill-rule:nonzero;fill:rgb(100%,100%,100%);fill-opacity:1;" d="M 333.570312 171.8125 C 333.214844 168.285156 332.863281 164.753906 332.511719 161.050781 L 313.636719 161.050781 C 313.460938 164.578125 313.28125 168.105469 313.28125 171.8125 Z M 333.570312 171.8125 "/>
<path style=" stroke:none;fill-rule:nonzero;fill:rgb(100%,100%,100%);fill-opacity:1;" d="M 741.578125 154.699219 L 764.15625 154.699219 C 764.863281 147.996094 765.214844 140.941406 765.214844 134.0625 L 744.929688 134.0625 C 744.046875 140.589844 742.988281 147.644531 741.578125 154.699219 Z M 741.578125 154.699219 "/>
<path style=" stroke:none;fill-rule:nonzero;fill:rgb(100%,100%,100%);fill-opacity:1;" d="M 286.292969 217.675781 C 283.296875 212.734375 279.765625 206.914062 275.886719 200.386719 L 252.25 200.386719 C 255.246094 206.5625 258.597656 213.089844 262.480469 219.792969 L 287.703125 219.792969 C 287.175781 219.085938 286.824219 218.378906 286.292969 217.675781 Z M 286.292969 217.675781 "/>
<path style=" stroke:none;fill-rule:nonzero;fill:rgb(100%,100%,100%);fill-opacity:1;" d="M 757.277344 182.570312 C 757.453125 182.042969 757.804688 181.335938 757.980469 180.808594 L 735.050781 180.808594 C 733.640625 185.21875 732.226562 189.628906 730.464844 194.039062 L 753.042969 194.039062 C 754.101562 190.6875 755.511719 186.980469 757.277344 182.570312 Z M 757.277344 182.570312 "/>
<path style=" stroke:none;fill-rule:nonzero;fill:rgb(100%,100%,100%);fill-opacity:1;" d="M 645.96875 180.808594 C 645.792969 185.042969 645.617188 189.628906 645.265625 194.039062 L 660.964844 194.039062 C 660.785156 189.628906 660.433594 185.21875 660.082031 180.808594 Z M 645.96875 180.808594 "/>
<path style=" stroke:none;fill-rule:nonzero;fill:rgb(100%,100%,100%);fill-opacity:1;" d="M 806.316406 174.28125 L 816.722656 174.28125 C 817.074219 170.222656 817.429688 165.8125 817.074219 161.050781 L 811.429688 161.050781 C 810.371094 165.109375 808.785156 169.695312 806.316406 174.28125 Z M 806.316406 174.28125 "/>
<path style=" stroke:none;fill-rule:nonzero;fill:rgb(100%,100%,100%);fill-opacity:1;" d="M 765.390625 301.640625 L 817.957031 301.640625 C 818.488281 294.9375 816.015625 276.769531 765.390625 301.640625 Z M 765.390625 301.640625 "/>
<path style=" stroke:none;fill-rule:nonzero;fill:rgb(100%,100%,100%);fill-opacity:1;" d="M 264.242188 180.808594 L 243.429688 180.808594 C 245.191406 185.042969 246.957031 189.453125 249.074219 194.039062 L 271.828125 194.039062 C 269.535156 189.804688 266.890625 185.394531 264.242188 180.808594 Z M 264.242188 180.808594 "/>
<path style=" stroke:none;fill-rule:nonzero;fill:rgb(100%,100%,100%);fill-opacity:1;" d="M 679.484375 347.679688 L 804.902344 347.679688 C 806.316406 344.503906 807.550781 341.328125 808.785156 338.15625 L 697.125 338.15625 C 691.128906 341.507812 685.304688 344.679688 679.484375 347.679688 Z M 679.484375 347.679688 "/>
<path style=" stroke:none;fill-rule:nonzero;fill:rgb(100%,100%,100%);fill-opacity:1;" d="M 376.960938 430.410156 C 349.796875 427.765625 328.628906 418.769531 312.402344 407.304688 L 255.601562 407.304688 C 262.128906 416.300781 270.242188 425.117188 279.945312 432.878906 L 636.445312 432.878906 C 635.210938 429.882812 633.621094 426.707031 631.859375 423.707031 C 620.214844 403.246094 635.914062 419.121094 644.382812 432.878906 L 739.988281 432.878906 C 748.105469 425.648438 756.921875 417.003906 765.566406 407.304688 L 373.257812 407.304688 C 379.960938 421.414062 376.960938 430.410156 376.960938 430.410156 Z M 376.960938 430.410156 "/>
<path style=" stroke:none;fill-rule:nonzero;fill:rgb(100%,100%,100%);fill-opacity:1;" d="M 369.730469 400.777344 L 771.210938 400.777344 C 775.445312 395.660156 779.679688 390.191406 783.734375 384.546875 L 356.5 384.546875 C 362.320312 390.367188 366.730469 395.835938 369.730469 400.777344 Z M 369.730469 400.777344 "/>
<path style=" stroke:none;fill-rule:nonzero;fill:rgb(100%,100%,100%);fill-opacity:1;" d="M 329.6875 643.5 C 327.394531 648.4375 324.925781 653.554688 322.457031 658.847656 L 475.570312 658.847656 C 474.863281 656.554688 474.511719 654.4375 474.511719 652.320312 C 474.511719 648.4375 474.6875 645.441406 475.039062 643.324219 L 329.6875 643.324219 Z M 329.6875 643.5 "/>
<use xlink:href="#surface29" mask="url(#mask8)"/>
<use xlink:href="#surface32" mask="url(#mask9)"/>
<path style=" stroke:none;fill-rule:nonzero;fill:rgb(100%,100%,100%);fill-opacity:1;" d="M 436.410156 226.320312 L 387.898438 226.320312 C 375.199219 228.964844 360.910156 230.90625 345.386719 231.785156 C 345.386719 231.785156 344.859375 229.847656 343.800781 226.320312 L 315.574219 226.320312 C 315.753906 229.140625 316.105469 231.964844 316.457031 234.960938 C 316.457031 234.960938 307.285156 245.015625 292.292969 226.320312 L 266.183594 226.320312 C 269.890625 232.492188 273.945312 239.019531 278.179688 245.722656 L 392.839844 245.722656 C 407.125 240.429688 422.472656 233.902344 436.410156 226.320312 Z M 436.410156 226.320312 "/>
<path style=" stroke:none;fill-rule:nonzero;fill:rgb(100%,100%,100%);fill-opacity:1;" d="M 570.472656 295.113281 C 570.472656 295.113281 564.296875 283.472656 551.421875 289.644531 C 551.421875 289.644531 552.300781 294.40625 553.359375 301.640625 L 571.175781 301.640625 C 570.824219 299.699219 570.648438 297.582031 570.472656 295.113281 Z M 570.472656 295.113281 "/>
<path style=" stroke:none;fill-rule:nonzero;fill:rgb(100%,100%,100%);fill-opacity:1;" d="M 621.097656 317.339844 L 579.289062 317.339844 C 578.585938 317.691406 577.703125 317.691406 576.996094 317.339844 L 555.125 317.339844 C 555.476562 321.925781 555.828125 326.867188 555.828125 331.804688 L 609.101562 331.804688 C 612.804688 326.6875 616.863281 321.925781 621.097656 317.339844 Z M 621.097656 317.339844 "/>
<path style=" stroke:none;fill-rule:nonzero;fill:rgb(100%,100%,100%);fill-opacity:1;" d="M 374.316406 331.804688 L 460.222656 331.804688 C 453.519531 326.6875 444.875 322.457031 433.9375 320.515625 C 430.058594 319.808594 426.175781 318.75 422.296875 317.515625 L 353.148438 317.515625 C 359.675781 322.101562 366.730469 326.867188 374.316406 331.804688 Z M 374.316406 331.804688 "/>
<path style=" stroke:none;fill-rule:nonzero;fill:rgb(100%,100%,100%);fill-opacity:1;" d="M 790.96875 194.039062 L 812.488281 194.039062 C 812.488281 193.683594 812.664062 193.332031 812.664062 193.15625 C 812.664062 193.15625 814.429688 188.394531 815.839844 180.808594 L 802.433594 180.808594 C 799.433594 185.21875 795.730469 189.628906 790.96875 194.039062 Z M 790.96875 194.039062 "/>
<path style=" stroke:none;fill-rule:nonzero;fill:rgb(100%,100%,100%);fill-opacity:1;" d="M 262.304688 278.003906 L 246.25 278.003906 C 229.316406 279.589844 226.671875 286.648438 226.671875 286.648438 C 226.671875 286.648438 225.613281 294.054688 225.613281 305.699219 L 313.105469 305.699219 C 297.40625 290.878906 283.824219 279.589844 262.304688 278.003906 Z M 262.304688 278.003906 "/>
<path style=" stroke:none;fill-rule:nonzero;fill:rgb(100%,100%,100%);fill-opacity:1;" d="M 735.226562 317.339844 C 728.347656 321.042969 721.46875 324.75 714.765625 328.628906 L 812.136719 328.628906 C 813.195312 324.925781 814.253906 321.21875 815.136719 317.339844 Z M 735.226562 317.339844 "/>
<path style=" stroke:none;fill-rule:nonzero;fill:rgb(100%,100%,100%);fill-opacity:1;" d="M 646.675781 154.699219 L 656.554688 154.699219 C 654.613281 145.882812 652.144531 138.472656 648.792969 134.0625 L 646.675781 134.0625 C 646.675781 137.589844 646.851562 145 646.675781 154.699219 Z M 646.675781 154.699219 "/>
<path style=" stroke:none;fill-rule:nonzero;fill:rgb(100%,100%,100%);fill-opacity:1;" d="M 297.054688 271.476562 L 348.5625 271.476562 C 341.859375 265.832031 337.800781 261.949219 337.800781 261.949219 C 337.800781 261.949219 353.148438 258.597656 373.789062 252.074219 L 282.589844 252.074219 C 286.292969 257.539062 290.175781 263.007812 294.230469 268.652344 C 294.230469 268.652344 295.289062 269.710938 297.054688 271.476562 Z M 297.054688 271.476562 "/>
<path style=" stroke:none;fill-rule:nonzero;fill:rgb(100%,100%,100%);fill-opacity:1;" d="M 259.304688 171.8125 C 257.363281 168.285156 255.425781 164.578125 253.484375 161.050781 L 236.550781 161.050781 C 237.609375 164.578125 238.84375 168.105469 240.078125 171.8125 Z M 259.304688 171.8125 "/>
<use xlink:href="#surface35" mask="url(#mask10)"/>
<path style=" stroke:none;fill-rule:nonzero;fill:rgb(54.901961%,70.588235%,87.843137%);fill-opacity:1;" d="M 368.140625 562.003906 C 366.203125 566.589844 363.910156 571.53125 361.085938 576.820312 L 681.425781 576.820312 C 677.367188 572.058594 673.488281 567.121094 669.605469 562.003906 Z M 368.140625 562.003906 "/>
<use xlink:href="#surface38" mask="url(#mask11)"/>
<path style=" stroke:none;fill-rule:nonzero;fill:rgb(100%,100%,100%);fill-opacity:1;" d="M 662.023438 226.320312 L 642.792969 226.320312 C 641.914062 233.199219 641.03125 239.726562 639.796875 245.722656 L 661.84375 245.722656 C 661.84375 240.785156 662.023438 234.082031 662.023438 226.320312 Z M 662.023438 226.320312 "/>
<path style=" stroke:none;fill-rule:nonzero;fill:rgb(80.784314%,80.784314%,90.588235%);fill-opacity:1;" d="M 361.4375 523.019531 C 360.027344 530.605469 358.085938 539.25 355.265625 549.125 L 651.789062 549.125 C 647.558594 540.484375 643.851562 531.664062 640.675781 523.019531 Z M 361.4375 523.019531 "/>
<use xlink:href="#surface41" mask="url(#mask12)"/>
<use xlink:href="#surface44" mask="url(#mask13)"/>
<path style=" stroke:none;fill-rule:nonzero;fill:rgb(100%,100%,100%);fill-opacity:1;" d="M 746.691406 112.894531 L 763.625 112.894531 C 760.804688 91.550781 754.277344 75.320312 746.867188 76.378906 C 746.867188 76.203125 747.925781 91.199219 746.691406 112.894531 Z M 746.691406 112.894531 "/>
<path style=" stroke:none;fill-rule:nonzero;fill:rgb(100%,100%,100%);fill-opacity:1;" d="M 334.980469 112.894531 C 338.15625 98.078125 343.976562 85.199219 353.855469 76.203125 C 353.855469 76.203125 333.921875 77.085938 321.925781 112.894531 Z M 334.980469 112.894531 "/>
<use xlink:href="#surface47" mask="url(#mask14)"/>
<path style=" stroke:none;fill-rule:nonzero;fill:rgb(100%,100%,100%);fill-opacity:1;" d="M 667.136719 354.207031 C 640.675781 367.789062 617.746094 377.140625 602.398438 376.257812 C 590.933594 375.550781 590.226562 366.378906 595.519531 354.207031 L 553.714844 354.207031 C 551.421875 363.378906 547.011719 369.90625 539.070312 370.257812 C 539.070312 370.257812 500.265625 364.789062 483.683594 369.730469 C 483.683594 369.730469 482.625 363.027344 478.390625 354.382812 L 413.125 354.382812 C 414.710938 355.265625 416.300781 355.972656 417.886719 356.851562 C 417.886719 356.851562 433.058594 384.722656 376.082031 354.382812 L 314.871094 354.382812 C 329.6875 362.675781 340.976562 370.789062 349.621094 378.195312 L 725.347656 378.195312 L 725.347656 374.492188 L 790.617188 374.492188 C 794.671875 368.140625 798.378906 361.4375 801.90625 354.382812 L 667.136719 354.382812 Z M 667.136719 354.207031 "/>
<path style=" stroke:none;fill-rule:nonzero;fill:rgb(75.294118%,89.019608%,89.803922%);fill-opacity:1;" d="M 370.964844 505.734375 C 370.789062 508.90625 370.4375 512.613281 369.90625 516.492188 L 645.96875 516.492188 C 644.734375 512.964844 643.851562 509.261719 642.96875 505.734375 Z M 370.964844 505.734375 "/>
<path style=" stroke:none;fill-rule:nonzero;fill:rgb(100%,100%,100%);fill-opacity:1;" d="M 643.324219 471.160156 L 368.320312 471.160156 C 369.199219 472.570312 370.082031 474.511719 371.140625 477.15625 C 372.550781 480.859375 374.84375 487.210938 374.84375 499.207031 L 645.085938 499.207031 C 643.5 491.445312 642.792969 483.683594 642.96875 476.449219 C 642.96875 476.628906 643.148438 474.511719 643.324219 471.160156 Z M 643.324219 471.160156 "/>
<path style=" stroke:none;fill-rule:nonzero;fill:rgb(77.647059%,90.588235%,95.294118%);fill-opacity:1;" d="M 732.582031 439.40625 L 647.910156 439.40625 C 648.4375 440.640625 648.792969 441.699219 649.144531 442.757812 C 650.730469 449.460938 655.140625 459.515625 664.316406 464.808594 L 694.832031 464.808594 C 698.007812 463.574219 701.535156 461.984375 705.0625 460.046875 C 705.0625 459.871094 716.703125 452.636719 732.582031 439.40625 Z M 732.582031 439.40625 "/>
<use xlink:href="#surface50" mask="url(#mask15)"/>
<path style=" stroke:none;fill-rule:nonzero;fill:rgb(100%,100%,100%);fill-opacity:1;" d="M 260.1875 328.804688 C 262.65625 329.6875 265.125 330.746094 267.417969 331.628906 L 342.035156 331.628906 C 336.039062 326.6875 330.570312 321.925781 325.453125 317.164062 L 225.789062 317.164062 C 225.964844 321.574219 226.496094 326.511719 227.023438 331.628906 L 260.714844 331.628906 C 260.363281 329.863281 260.1875 328.804688 260.1875 328.804688 Z M 260.1875 328.804688 "/>
<path style=" stroke:none;fill-rule:nonzero;fill:rgb(100%,100%,100%);fill-opacity:1;" d="M 228.082031 338.15625 C 228.613281 341.328125 229.140625 344.503906 229.847656 347.679688 L 266.183594 347.679688 C 264.773438 344.152344 263.539062 340.800781 262.65625 338.15625 Z M 228.082031 338.15625 "/>
<path style=" stroke:none;fill-rule:nonzero;fill:rgb(77.647059%,90.588235%,95.294118%);fill-opacity:1;" d="M 638.738281 439.40625 L 288.410156 439.40625 C 304.109375 450.34375 323.515625 459.164062 347.679688 464.808594 L 643.324219 464.808594 C 642.96875 458.105469 641.914062 449.109375 638.738281 439.40625 Z M 638.738281 439.40625 "/>
<path style=" stroke:none;fill-rule:nonzero;fill:rgb(100%,100%,100%);fill-opacity:1;" d="M 250.132812 154.699219 C 246.605469 147.644531 243.253906 140.765625 240.429688 134.0625 L 230.375 134.0625 C 231.257812 140.238281 232.667969 147.117188 234.785156 154.699219 Z M 250.132812 154.699219 "/>
<path style=" stroke:none;fill-rule:nonzero;fill:rgb(100%,100%,100%);fill-opacity:1;" d="M 251.191406 400.777344 L 304.109375 400.777344 C 297.9375 395.660156 292.644531 390.015625 288.058594 384.546875 L 242.195312 384.546875 C 244.664062 390.015625 247.664062 395.484375 251.191406 400.777344 Z M 251.191406 400.777344 "/>
<path style=" stroke:none;fill-rule:nonzero;fill:rgb(100%,100%,100%);fill-opacity:1;" d="M 700.828125 271.476562 C 712.824219 265.65625 725.703125 258.953125 738.226562 252.074219 L 670.839844 252.074219 C 667.488281 252.953125 664.316406 253.484375 661.316406 253.308594 C 661.316406 253.308594 661.316406 252.953125 661.316406 252.074219 L 638.03125 252.074219 C 635.738281 260.890625 633.09375 267.773438 629.5625 271.476562 Z M 700.828125 271.476562 "/>
<path style=" stroke:none;fill-rule:nonzero;fill:rgb(100%,100%,100%);fill-opacity:1;" d="M 592.875 301.640625 L 638.207031 301.640625 C 642.792969 298.113281 647.203125 295.289062 651.085938 293.878906 C 657.789062 291.410156 671.195312 285.589844 687.597656 277.828125 L 623.214844 277.828125 C 611.394531 288.058594 605.398438 287.882812 592.875 301.640625 Z M 592.875 301.640625 "/>
<path style=" stroke:none;fill-rule:nonzero;fill:rgb(100%,100%,100%);fill-opacity:1;" d="M 337.273438 305.519531 L 396.542969 305.519531 C 381.371094 296.878906 367.085938 286.46875 356.5 277.828125 L 304.109375 277.828125 C 311.519531 284.707031 322.808594 294.40625 337.273438 305.519531 Z M 337.273438 305.519531 "/>
<path style=" stroke:none;fill-rule:nonzero;fill:rgb(100%,100%,100%);fill-opacity:1;" d="M 231.257812 354.207031 C 233.199219 361.96875 235.84375 370.082031 239.195312 378.019531 L 282.941406 378.019531 C 276.945312 369.730469 272.359375 361.4375 269.007812 354.207031 Z M 231.257812 354.207031 "/>
<path style=" stroke:none;fill-rule:nonzero;fill:rgb(100%,100%,100%);fill-opacity:1;" d="M 350.328125 338.15625 L 282.589844 338.15625 C 289.820312 341.328125 296.523438 344.503906 302.699219 347.679688 L 364.613281 347.679688 C 359.5 344.679688 354.734375 341.328125 350.328125 338.15625 Z M 350.328125 338.15625 "/>
<path style=" stroke:none;fill-rule:nonzero;fill:rgb(100%,100%,100%);fill-opacity:1;" d="M 745.457031 127.535156 L 764.863281 127.535156 C 764.683594 124.714844 764.507812 121.890625 764.332031 119.246094 L 746.164062 119.246094 C 745.988281 121.890625 745.8125 124.714844 745.457031 127.535156 Z M 745.457031 127.535156 "/>
<path style=" stroke:none;fill-rule:nonzero;fill:rgb(100%,100%,100%);fill-opacity:1;" d="M 318.046875 127.535156 L 332.863281 127.535156 C 333.039062 124.714844 333.390625 121.890625 333.921875 119.246094 L 320.164062 119.246094 C 319.28125 121.890625 318.75 124.714844 318.046875 127.535156 Z M 318.046875 127.535156 "/>
<path style=" stroke:none;fill-rule:nonzero;fill:rgb(100%,100%,100%);fill-opacity:1;" d="M 809.488281 200.386719 L 783.03125 200.386719 C 776.679688 204.972656 769.09375 209.382812 759.746094 213.265625 C 759.746094 213.265625 747.925781 218.027344 751.457031 200.386719 L 727.816406 200.386719 C 725.347656 205.855469 722.703125 211.324219 719.703125 216.617188 L 793.789062 216.617188 C 800.847656 210.796875 806.316406 205.328125 809.488281 200.386719 Z M 809.488281 200.386719 "/>
<path style=" stroke:none;fill-rule:nonzero;fill:rgb(100%,100%,100%);fill-opacity:1;" d="M 467.453125 338.15625 L 384.722656 338.15625 C 390.015625 341.328125 395.484375 344.503906 401.128906 347.679688 L 474.863281 347.679688 C 472.746094 344.503906 470.277344 341.328125 467.453125 338.15625 Z M 467.453125 338.15625 "/>
<path style=" stroke:none;fill-rule:nonzero;fill:rgb(100%,100%,100%);fill-opacity:1;" d="M 604.515625 338.15625 L 555.652344 338.15625 C 555.476562 341.507812 555.300781 344.679688 554.949219 347.679688 L 598.695312 347.679688 C 600.28125 344.679688 602.222656 341.507812 604.515625 338.15625 Z M 604.515625 338.15625 "/>
<path style=" stroke:none;fill-rule:nonzero;fill:rgb(9.019608%,10.980392%,38.039216%);fill-opacity:1;" d="M 730.992188 335.683594 C 668.195312 367.085938 602.398438 411.359375 569.941406 409.417969 C 537.308594 407.65625 591.992188 336.921875 618.453125 327.042969 C 644.910156 317.164062 775.796875 256.304688 780.207031 226.140625 C 780.207031 226.140625 790.085938 200.386719 780.738281 174.457031 C 780.738281 174.457031 788.144531 220.496094 727.289062 246.429688 C 727.289062 246.429688 708.765625 253.835938 724.820312 215.734375 C 740.871094 177.632812 729.757812 107.425781 714.410156 109.367188 C 714.410156 109.367188 721.644531 207.796875 677.542969 264.242188 C 677.542969 264.242188 648.617188 287 629.035156 286.292969 C 629.035156 286.292969 633.972656 181.160156 614.21875 164.578125 C 614.21875 164.578125 616.6875 284.53125 596.929688 304.816406 C 577.175781 325.101562 572.941406 316.457031 549.65625 347.855469 C 549.65625 347.855469 541.011719 361.4375 538.015625 328.101562 C 538.015625 328.101562 531.839844 316.457031 518.960938 322.632812 C 518.960938 322.632812 535.015625 402.011719 506.613281 403.246094 C 506.613281 403.246094 467.808594 397.777344 451.226562 402.714844 C 451.226562 402.714844 444.523438 361.4375 401.480469 353.5 C 358.441406 345.5625 305.519531 295.113281 305.519531 295.113281 C 305.519531 295.113281 427.941406 268.652344 449.460938 216.96875 C 449.460938 216.96875 408.890625 258.777344 312.929688 264.949219 C 312.929688 264.949219 277.828125 147.996094 321.574219 109.367188 C 321.574219 109.367188 267.417969 111.835938 284 268.125 C 284 268.125 272.359375 281 253.835938 250.835938 C 235.316406 220.675781 193.507812 152.40625 199.152344 129.125 C 199.152344 129.125 177.105469 186.277344 261.949219 301.992188 C 261.949219 301.992188 313.988281 354.207031 385.605469 390.015625 C 385.605469 390.015625 400.953125 418.238281 342.566406 387.015625 C 284.175781 355.617188 272.710938 314.695312 230.023438 311.34375 C 198.625 308.871094 194.390625 319.984375 194.390625 319.984375 C 194.390625 319.984375 171.28125 475.214844 331.273438 500.96875 C 331.273438 500.96875 334.273438 499.207031 338.683594 510.144531 C 342.917969 521.257812 355.265625 557.417969 287.703125 696.417969 C 287.703125 696.417969 251.367188 757.980469 319.632812 805.257812 C 319.632812 805.257812 469.746094 904.921875 512.789062 866.820312 C 512.789062 866.820312 522.667969 843.535156 518.960938 767.859375 C 518.960938 767.859375 442.757812 717.410156 442.054688 685.484375 C 441.523438 653.554688 460.75 685.835938 467.277344 695.359375 C 478.921875 712.472656 505.554688 744.753906 632.035156 759.921875 C 632.035156 759.921875 652.320312 759.394531 669.605469 734.699219 C 686.894531 710.179688 704.003906 690.949219 686.894531 669.429688 C 669.605469 647.910156 608.75 567.296875 610.691406 509.613281 C 610.691406 509.613281 614.394531 482.625 599.578125 456.695312 C 584.757812 430.941406 613.6875 462.867188 616.863281 475.746094 C 619.863281 488.621094 633.445312 514.554688 672.78125 493.03125 C 672.78125 493.03125 772.445312 430.941406 785.324219 336.921875 C 784.972656 336.742188 793.613281 304.285156 730.992188 335.683594 Z M 344.503906 463.398438 C 245.546875 453.519531 227.730469 361.96875 227.730469 361.96875 C 361.085938 413.652344 344.503906 463.398438 344.503906 463.398438 Z M 344.503906 463.398438 "/>
<path style=" stroke:none;fill-rule:nonzero;fill:rgb(100%,94.509804%,0%);fill-opacity:1;" d="M 410.832031 561.476562 L 410.832031 635.03125 L 391.78125 635.03125 L 391.78125 531.839844 L 416.476562 531.839844 C 427.414062 531.839844 435.878906 535.898438 442.054688 543.835938 C 449.285156 553.359375 452.988281 566.238281 452.988281 582.640625 C 452.988281 598.34375 449.816406 611.042969 443.640625 620.921875 C 437.46875 630.800781 429.351562 635.738281 419.472656 635.738281 C 418.238281 635.738281 416.476562 635.5625 413.828125 635.386719 L 413.828125 605.046875 L 416.828125 605.046875 C 427.941406 605.046875 433.410156 597.636719 433.410156 582.640625 C 433.410156 568.53125 427.941406 561.652344 417.003906 561.652344 L 410.832031 561.652344 Z M 410.832031 561.476562 "/>
<path style=" stroke:none;fill-rule:nonzero;fill:rgb(100%,94.509804%,0%);fill-opacity:1;" d="M 506.613281 601.871094 L 479.980469 601.871094 C 479.625 599.753906 479.449219 597.636719 479.449219 595.871094 C 479.449219 593.402344 479.800781 590.933594 480.332031 588.464844 L 489.152344 588.464844 C 488.445312 582.820312 486.503906 579.996094 483.332031 579.996094 C 481.214844 579.996094 479.449219 581.40625 478.039062 584.40625 C 476.628906 587.40625 475.921875 591.285156 475.921875 595.871094 C 475.921875 600.8125 476.628906 604.691406 477.863281 607.691406 C 479.273438 610.691406 480.859375 612.277344 483.152344 612.277344 C 484.917969 612.277344 486.503906 610.867188 488.269531 608.042969 L 498.324219 627.449219 C 493.738281 633.269531 488.445312 636.265625 482.800781 636.265625 C 475.921875 636.265625 470.101562 632.5625 465.335938 624.976562 C 460.574219 617.394531 458.28125 608.21875 458.28125 597.105469 C 458.28125 585.992188 460.75 576.820312 465.335938 569.234375 C 470.101562 561.652344 475.921875 557.769531 482.800781 557.769531 C 489.503906 557.769531 495.324219 561.476562 499.910156 568.882812 C 504.5 576.292969 506.792969 585.464844 506.792969 596.402344 C 506.792969 597.636719 506.792969 599.398438 506.613281 601.871094 Z M 506.613281 601.871094 "/>
<path style=" stroke:none;fill-rule:nonzero;fill:rgb(100%,94.509804%,0%);fill-opacity:1;" d="M 559.886719 601.871094 L 533.25 601.871094 C 532.898438 599.753906 532.722656 597.636719 532.722656 595.871094 C 532.722656 593.402344 533.074219 590.933594 533.605469 588.464844 L 542.421875 588.464844 C 541.71875 582.820312 539.777344 579.996094 536.601562 579.996094 C 534.484375 579.996094 532.722656 581.40625 531.3125 584.40625 C 529.898438 587.40625 529.195312 591.285156 529.195312 595.871094 C 529.195312 600.8125 529.898438 604.691406 531.132812 607.691406 C 532.546875 610.691406 534.132812 612.277344 536.425781 612.277344 C 538.191406 612.277344 539.777344 610.867188 541.542969 608.042969 L 551.597656 627.449219 C 547.011719 633.269531 541.71875 636.265625 536.074219 636.265625 C 529.195312 636.265625 523.371094 632.5625 518.609375 624.976562 C 513.847656 617.394531 511.554688 608.21875 511.554688 597.105469 C 511.554688 585.992188 514.023438 576.820312 518.609375 569.234375 C 523.371094 561.652344 529.195312 557.769531 536.074219 557.769531 C 542.777344 557.769531 548.597656 561.476562 553.183594 568.882812 C 557.769531 576.292969 560.0625 585.464844 560.0625 596.402344 C 560.0625 597.636719 559.886719 599.398438 559.886719 601.871094 Z M 559.886719 601.871094 "/>
<path style=" stroke:none;fill-rule:nonzero;fill:rgb(100%,94.509804%,0%);fill-opacity:1;" d="M 592.695312 558.828125 L 592.695312 589.167969 C 591.460938 588.109375 590.402344 587.582031 589.34375 587.582031 C 586.171875 587.582031 584.582031 591.460938 584.582031 599.398438 L 584.582031 635.03125 L 567.121094 635.03125 L 567.121094 593.933594 C 567.121094 582.996094 568.882812 574.351562 572.585938 567.824219 C 576.292969 561.296875 581.230469 558.125 587.40625 558.125 C 588.816406 558.125 590.582031 558.300781 592.695312 558.828125 Z M 592.695312 558.828125 "/>
<path style=" stroke:none;fill-rule:nonzero;fill:rgb(100%,94.509804%,0%);fill-opacity:1;" d="M 615.453125 531.839844 L 615.453125 635.03125 L 597.988281 635.03125 L 597.988281 531.839844 Z M 615.453125 531.839844 "/>
<path style=" stroke:none;fill-rule:nonzero;fill:rgb(100%,94.509804%,0%);fill-opacity:1;" d="M 671.546875 601.871094 L 644.910156 601.871094 C 644.558594 599.753906 644.382812 597.636719 644.382812 595.871094 C 644.382812 593.402344 644.734375 590.933594 645.265625 588.464844 L 654.082031 588.464844 C 653.378906 582.820312 651.4375 579.996094 648.261719 579.996094 C 646.144531 579.996094 644.382812 581.40625 642.96875 584.40625 C 641.558594 587.40625 640.855469 591.285156 640.855469 595.871094 C 640.855469 600.8125 641.558594 604.691406 642.792969 607.691406 C 644.207031 610.691406 645.792969 612.277344 648.085938 612.277344 C 649.851562 612.277344 651.4375 610.867188 653.203125 608.042969 L 663.257812 627.449219 C 658.671875 633.269531 653.378906 636.265625 647.734375 636.265625 C 640.855469 636.265625 635.03125 632.5625 630.269531 624.976562 C 625.507812 617.394531 623.214844 608.21875 623.214844 597.105469 C 623.214844 585.992188 625.683594 576.820312 630.269531 569.234375 C 635.03125 561.652344 640.855469 557.769531 647.734375 557.769531 C 654.4375 557.769531 660.257812 561.476562 664.84375 568.882812 C 669.429688 576.292969 671.722656 585.464844 671.722656 596.402344 C 671.722656 597.636719 671.722656 599.398438 671.546875 601.871094 Z M 671.546875 601.871094 "/>
<path style=" stroke:none;fill-rule:nonzero;fill:rgb(100%,94.509804%,0%);fill-opacity:1;" d="M 720.410156 635.03125 L 702.945312 635.03125 L 702.945312 592.519531 C 702.945312 588.109375 701.886719 585.992188 699.59375 585.992188 C 697.476562 585.992188 696.242188 588.109375 696.242188 592.519531 L 696.242188 635.03125 L 678.78125 635.03125 L 678.78125 593.050781 C 678.78125 583.171875 680.71875 574.882812 684.777344 568.179688 C 688.835938 561.476562 693.773438 558.125 699.59375 558.125 C 706.296875 558.125 711.589844 562.003906 715.648438 569.765625 C 718.820312 575.9375 720.410156 584.40625 720.410156 595.167969 Z M 720.410156 635.03125 "/>
<path style=" stroke:none;fill-rule:nonzero;fill:rgb(100%,94.509804%,0%);fill-opacity:1;" d="M 755.335938 594.8125 C 751.101562 593.402344 748.105469 591.992188 746.164062 590.402344 C 744.222656 588.816406 743.339844 586.875 743.339844 584.582031 C 743.339844 582.996094 743.871094 581.230469 744.753906 579.644531 C 745.8125 577.878906 747.222656 577.175781 749.164062 577.175781 L 767.15625 576.996094 L 767.15625 561.121094 L 748.984375 561.121094 C 742.636719 561.121094 737.519531 563.238281 733.816406 567.296875 C 730.109375 571.53125 728.171875 576.820312 728.171875 583.347656 C 728.171875 588.992188 729.582031 593.753906 732.582031 597.636719 C 735.578125 601.515625 739.636719 604.339844 745.105469 606.28125 C 748.808594 607.515625 751.457031 608.75 753.042969 610.160156 C 754.628906 611.570312 754.808594 613.160156 754.808594 614.921875 C 754.808594 616.511719 754.808594 617.921875 753.75 618.980469 C 752.691406 620.039062 751.101562 620.566406 749.164062 620.566406 L 728.875 620.566406 L 728.875 635.210938 L 749.339844 635.210938 C 755.863281 635.210938 761.15625 634.503906 764.863281 630.445312 C 768.566406 626.390625 769.625 621.097656 769.625 614.570312 C 769.625 610.160156 769.09375 606.101562 766.449219 602.574219 C 763.804688 598.871094 760.097656 596.402344 755.335938 594.8125 Z M 755.335938 594.8125 "/>
</g>
</svg>
